<svg width="327" height="335" viewBox="0 0 327 335" fill="none" xmlns="http://www.w3.org/2000/svg">
<path d="M241.737 312.309L154.89 186.128L142.522 168.167L41.7468 21.7488H85.0959L166.594 140.16L178.961 158.122L285.086 312.309H241.737ZM303.006 299.984L193.622 141.07L181.256 123.097L103.009 9.42068L96.5237 5.5434e-05H0.375L23.824 34.0742L127.862 185.238L140.229 203.192L223.821 324.648L230.307 334.058H326.456L303.006 299.984Z" fill="#F45448"/>
<path d="M142.523 168.167L154.891 186.128L140.229 203.192L27.7394 334.058H0L127.862 185.238L142.523 168.167Z" fill="#F45448"/>
<path d="M314.882 0.000116759L193.624 141.07L178.962 158.122L166.596 140.161L181.257 123.097L263.396 27.4925L287.143 0.000116759H314.882Z" fill="#F45448"/>
</svg>
