<svg width="376" height="311" viewBox="0 0 376 311" fill="none" xmlns="http://www.w3.org/2000/svg">
<path d="M375.205 6.702C373.858 2.73292 372.25 1.68842 369.739 0.696153C364.246 -1.34061 354.941 1.74065 354.941 1.74065C354.941 1.74065 25.5448 120.186 6.72664 133.295C2.67478 136.115 1.31725 137.786 0.643681 139.719C-2.60929 149.015 7.52554 153.14 7.52554 153.14L92.4266 180.819C92.4266 180.819 95.5908 181.289 96.7186 180.558C116.033 168.338 291.041 57.83 301.134 54.1221C302.726 53.6521 303.906 54.1743 303.593 55.2711C299.552 69.4762 147.55 204.582 147.55 204.582C147.55 204.582 146.97 205.313 146.605 206.148L146.406 206.044L138.485 290.283C138.485 290.283 135.164 316.082 160.964 290.283C179.166 272.056 196.778 256.806 205.591 249.443C234.785 269.602 266.202 291.902 279.762 303.548C286.571 309.397 292.268 310.337 296.957 310.18C309.827 309.71 313.42 295.557 313.42 295.557C313.42 295.557 373.446 53.9132 375.451 21.5339C375.649 18.3481 375.921 16.3635 375.942 14.1701C375.978 11.1411 375.696 8.11207 375.205 6.702Z" fill="#F45448"/>
</svg>
